<?xml version="1.0" encoding="utf-8"?>
<!-- Designed by Vexels.com - 2020 All Rights Reserved - https://vexels.com/terms-and-conditions/  -->
<svg version="1.1" id="Capa_1" xmlns="http://www.w3.org/2000/svg" xmlns:xlink="http://www.w3.org/1999/xlink" x="0px" y="0px"
	 viewBox="0 0 1200 1200" enable-background="new 0 0 1200 1200" xml:space="preserve">
<g>
	<g>
		<g>
			<path fill="#1F1713" d="M867.838,720.463c-32.363-17.564-69.442-27.541-108.853-27.541c-50.947,0-97.941,16.74-135.933,44.933
				L867.838,720.463z"/>
			<path fill="#1F1713" d="M896.555,933.452l-102.609,68.151c-15.032,9.984-34.477,10.329-49.846,0.872
				c-33.885-20.851-91.531-56.785-106.525-69.023H387.209v124.352c0,6.631-6.332,12.006-14.143,12.006
				c-7.961,0-14.353-5.55-14.139-12.305c0.797-25.208,2.468-78.751,2.312-124.054H203.287
				C209.524,1054.096,309.315,1150,431.512,1150h327.473c122.196,0,221.987-95.904,228.225-216.548H896.555z"/>
		</g>
		<path fill="#D49932" d="M785.66,50L461.322,361.806c-23.137,23.137-6.75,62.696,25.97,62.696h80.191L383.122,726.301
			l273.719-289.635c22.228-22.843,13.684-66.302-21.775-66.302h-75.507L785.66,50z"/>
		<g>
			<path fill="#1F1713" d="M358.518,869.496c-3.008-21.283-15.828-31.983-28.137-37.375c-8.524,0.302-17.059,2.385-24.886,6.258
				c-7.658,3.789-16.266,6.098-25.375,6.479c-33.103,1.386-59.636-3.002-57.776-32.773h-46.434
				c-22.27,0-40.324,18.053-40.324,40.323v8.909c0,22.27,18.054,40.323,40.324,40.323h184.827
				C360.319,888.464,359.616,877.263,358.518,869.496z"/>
			<path fill="#1F1713" d="M1024.09,812.085H512.046l-0.417,1.059c-5.216,13.24-17.539,22.693-31.754,23.35
				c-0.091,0.004-0.182,0.008-0.273,0.012c-9.109,0.381-17.718-1.207-25.376-4.355c-8.509-3.497-17.852-4.753-27.111-3.964
				c-38.548,13.186-39.905,37.83-39.905,37.83v35.624h636.88c22.27,0,40.323-18.053,40.323-40.323v-8.909
				C1064.413,830.139,1046.359,812.085,1024.09,812.085z"/>
		</g>
		<g>
			<path fill="#1F1713" d="M517.426,468.355h-81.162c-126.219,0-228.539,102.32-228.539,228.539c0,24.311,3.831,47.72,10.863,69.697
				l119.528-8.492L517.426,468.355z"/>
			<path fill="#1F1713" d="M763.737,468.355h-102.44L389.23,754.467l602.521-42.808c0.312-4.887,0.526-9.8,0.526-14.765
				C992.276,570.675,889.956,468.355,763.737,468.355z"/>
		</g>
		<path fill="#1F1713" d="M228.798,785.756l784.585-51.845c9.635-0.637,17.8,7.007,17.8,16.663v0c0,8.953-7.06,16.312-16.005,16.685
			l-785.617,32.683c-4.035,0.168-7.399-3.058-7.399-7.097l0,0C222.163,789.103,225.065,786.003,228.798,785.756z"/>
	</g>
</g>
</svg>
